<svg xmlns="http://www.w3.org/2000/svg" xmlns:xlink="http://www.w3.org/1999/xlink" xmlns:lucid="lucid" width="780" height="1179.25"><g transform="translate(0 -12)" lucid:page-tab-id="0_0"><path d="M40 32h720v540H40z" stroke="#000" stroke-width="2" fill="#fff"/><path d="M40 32h720v60H40z" stroke="#000" stroke-width="2" fill="#bfbfbf"/><path d="M232 56h516v24H232z" stroke="#000" stroke-width="2" fill="#fff"/><path d="M64 56L52 68l12 12M52 68h24M112 56l12 12-12 12m-12-12h24M172 68c-1.4-6.23-2.8-8.15-4.95-9.7-5.36-3.9-12.86-2.72-16.76 2.65-3.9 5.36-2.72 12.86 2.65 16.76 5.36 3.9 12.86 2.72 16.76-2.65" stroke="#000" stroke-width="6" fill="none"/><path d="M175.12 56v12h-12z" stroke="#000" stroke-width="1.5"/><path d="M196 68l12-12 12 12h-2.4v12h-6V68h-7.2v12h-6V68z" stroke="#000"/><path d="M728 92h32v480h-32z" stroke="#000" stroke-width="2" fill="#fff"/><path d="M732 96h24v24h-24z" stroke="#000" stroke-width="2" fill="none"/><path d="M736.8 112.8h14.4l-7.2-9.6z" stroke="#000" stroke-width="2"/><path d="M732 124h24v212h-24zM736 226h16m-16 4h16m-16 4h16M732 568h24v-24h-24z" stroke="#000" stroke-width="2" fill="none"/><path d="M736.8 551.2h14.4l-7.2 9.6z" stroke="#000" stroke-width="2"/><use xlink:href="#a" transform="matrix(1,0,0,1,60,32) translate(249.64999999999998 15.6)"/><use xlink:href="#b" transform="matrix(1,0,0,1,60,32) translate(330.45 15.6)"/><use xlink:href="#c" transform="matrix(1,0,0,1,238,56) translate(0 15.6)"/><path d="M95 165v250h580V165z" fill="none"/><path d="M95 315l174 25 174-75 174 50" stroke="#ababab" stroke-width="4" fill="none"/><path d="M95 390l174-100 174 50 174-125" stroke="#545454" stroke-width="4" fill="none"/><path d="M95 165v250h580" stroke="#000" stroke-width="4" fill="none"/><use xlink:href="#d" transform="matrix(1,0,0,1,105,165) translate(250.05 22.6)"/><path d="M172 470c-6.63 0-12 5.37-12 12v16c0 6.63 5.37 12 12 12h166c6.63 0 12-5.37 12-12v-16c0-6.63-5.37-12-12-12z" stroke="#000" stroke-width="2" fill="#fff"/><use xlink:href="#e" transform="matrix(1,0,0,1,170,474) translate(3.674999999999983 19.6)"/><use xlink:href="#f" transform="matrix(1,0,0,1,170,474) translate(41.624999999999986 19.6)"/><use xlink:href="#g" transform="matrix(1,0,0,1,170,474) translate(82.52499999999999 19.6)"/><path d="M452 470c-6.63 0-12 5.37-12 12v16c0 6.63 5.37 12 12 12h136c6.63 0 12-5.37 12-12v-16c0-6.63-5.37-12-12-12z" stroke="#000" stroke-width="2" fill="#fff"/><use xlink:href="#h" transform="matrix(1,0,0,1,450,474) translate(46.525 19.6)"/><path d="M40 631.25h720v540H40z" stroke="#000" stroke-width="2" fill="#fff"/><path d="M40 631.25h720v60H40z" stroke="#000" stroke-width="2" fill="#bfbfbf"/><path d="M232 655.25h516v24H232z" stroke="#000" stroke-width="2" fill="#fff"/><path d="M64 655.25l-12 12 12 12m-12-12h24M112 655.25l12 12-12 12m-12-12h24M172 667.25c-1.4-6.23-2.8-8.15-4.95-9.7-5.36-3.9-12.86-2.72-16.76 2.65-3.9 5.36-2.72 12.86 2.65 16.76 5.36 3.9 12.86 2.7 16.76-2.66" stroke="#000" stroke-width="6" fill="none"/><path d="M175.12 655.25v12h-12z" stroke="#000" stroke-width="1.5"/><path d="M196 667.25l12-12 12 12h-2.4v12h-6v-12h-7.2v12h-6v-12z" stroke="#000"/><path d="M728 691.25h32v480h-32z" stroke="#000" stroke-width="2" fill="#fff"/><path d="M732 695.25h24v24h-24z" stroke="#000" stroke-width="2" fill="none"/><path d="M736.8 712.05h14.4l-7.2-9.6z" stroke="#000" stroke-width="2"/><path d="M732 723.25h24v212h-24zM736 825.25h16m-16 4h16m-16 4h16M732 1167.25h24v-24h-24z" stroke="#000" stroke-width="2" fill="none"/><path d="M736.8 1150.45h14.4l-7.2 9.6z" stroke="#000" stroke-width="2"/><use xlink:href="#i" transform="matrix(1,0,0,1,60,631.25) translate(249.64999999999998 15.6)"/><use xlink:href="#j" transform="matrix(1,0,0,1,60,631.25) translate(330.45 15.6)"/><use xlink:href="#k" transform="matrix(1,0,0,1,238,655.25) translate(0 15.6)"/><path d="M90 805h200v40H90z" stroke="#000" stroke-width="2" fill="#fff"/><path d="M254 809h32v32h-32z" stroke="#000" stroke-width="2" fill="none"/><path d="M260.4 818.6h19.2l-9.6 12.8z" stroke="#000" stroke-width="2"/><use xlink:href="#l" transform="matrix(1,0,0,1,102,805) translate(0 23.6)"/><use xlink:href="#m" transform="matrix(1,0,0,1,102,805) translate(73.9 23.6)"/><path d="M250 935h160v135H250z" fill="none"/><path d="M250 941.88h20v20h-20z" stroke="#000" stroke-width="2" fill="#fff"/><path d="M254 949.88l4 6 8-8" stroke="#000" stroke-width="3" fill="none"/><path d="M250 975.63h20v20h-20zM250 1009.38h20v20h-20zM250 1043.13h20v20h-20z" stroke="#000" stroke-width="2" fill="#fff"/><use xlink:href="#n" transform="matrix(1,0,0,1,282,935) translate(0 20.6)"/><use xlink:href="#o" transform="matrix(1,0,0,1,282,968.75) translate(0 20.6)"/><use xlink:href="#p" transform="matrix(1,0,0,1,282,1002.5) translate(0 20.6)"/><use xlink:href="#q" transform="matrix(1,0,0,1,282,1036.25) translate(0 20.6)"/><path d="M45 700h675v25H45z" fill="#fff"/><path d="M122.9 700h113.8v25H122.9z" fill="#bfbfbf"/><use xlink:href="#r" transform="matrix(1,0,0,1,45,705) translate(15.049999999999997 14.4)"/><use xlink:href="#s" transform="matrix(1,0,0,1,122.9,705) translate(15.099999999999994 14.4)"/><use xlink:href="#t" transform="matrix(1,0,0,1,236.70000000000002,705) translate(15 14.4)"/><path d="M45 100h675v25H45z" fill="#fff"/><path d="M45 100h77.9v25H45z" fill="#bfbfbf"/><use xlink:href="#r" transform="matrix(1,0,0,1,45,105) translate(15.049999999999997 14.4)"/><use xlink:href="#s" transform="matrix(1,0,0,1,122.9,105) translate(15.099999999999994 14.4)"/><use xlink:href="#t" transform="matrix(1,0,0,1,236.70000000000002,105) translate(15 14.4)"/><path d="M415 805h160v95H415z" fill="none"/><path d="M415 810.83h20v20h-20z" stroke="#000" stroke-width="2" fill="#fff"/><path d="M419 818.83l4 6 8-8" stroke="#000" stroke-width="3" fill="none"/><path d="M415 842.5h20v20h-20zM415 874.17h20v20h-20z" stroke="#000" stroke-width="2" fill="#fff"/><use xlink:href="#u" transform="matrix(1,0,0,1,447,805) translate(0 19.6)"/><use xlink:href="#v" transform="matrix(1,0,0,1,447,836.6666666666666) translate(0 19.6)"/><use xlink:href="#w" transform="matrix(1,0,0,1,447,836.6666666666666) translate(41 19.6)"/><use xlink:href="#x" transform="matrix(1,0,0,1,447,868.3333333333334) translate(0 19.6)"/><use xlink:href="#w" transform="matrix(1,0,0,1,447,868.3333333333334) translate(51.55 19.6)"/><path d="M20 760h240v60H20z" stroke="#000" stroke-opacity="0" stroke-width="2" fill="#fff" fill-opacity="0"/><use xlink:href="#y" transform="matrix(1,0,0,1,25,765) translate(74.6 28.6)"/><path d="M45 920h240v60H45z" stroke="#000" stroke-opacity="0" stroke-width="2" fill="#fff" fill-opacity="0"/><use xlink:href="#z" transform="matrix(1,0,0,1,50,925) translate(51.074999999999996 28.6)"/><use xlink:href="#A" transform="matrix(1,0,0,1,50,925) translate(84.025 28.6)"/><use xlink:href="#B" transform="matrix(1,0,0,1,50,925) translate(104.025 28.6)"/><path d="M360 760h240v60H360z" stroke="#000" stroke-opacity="0" stroke-width="2" fill="#fff" fill-opacity="0"/><use xlink:href="#C" transform="matrix(1,0,0,1,365,765) translate(48.625 28.6)"/><use xlink:href="#D" transform="matrix(1,0,0,1,365,765) translate(137.425 28.6)"/><path d="M405 935h160v135H405z" fill="none"/><path d="M405 941.88h20v20h-20zM405 975.63h20v20h-20zM405 1009.38h20v20h-20zM405 1043.13h20v20h-20z" stroke="#000" stroke-width="2" fill="#fff"/><g><use xlink:href="#E" transform="matrix(1,0,0,1,437,935) translate(0 20.6)"/></g><g><use xlink:href="#F" transform="matrix(1,0,0,1,437,968.75) translate(0 20.6)"/></g><g><use xlink:href="#G" transform="matrix(1,0,0,1,437,1002.5) translate(0 20.6)"/></g><g><use xlink:href="#H" transform="matrix(1,0,0,1,437,1036.25) translate(0 20.6)"/></g><defs><path d="M205 0l-28-72H64L36 0H1l101-248h38L239 0h-34zm-38-99l-47-123c-12 45-31 82-46 123h93" id="I"/><path d="M24 0v-261h32V0H24" id="J"/><path d="M177-190C167-65 218 103 67 71c-23-6-38-20-44-43l32-5c15 47 100 32 89-28v-30C133-14 115 1 83 1 29 1 15-40 15-95c0-56 16-97 71-98 29-1 48 16 59 35 1-10 0-23 2-32h30zM94-22c36 0 50-32 50-73 0-42-14-75-50-75-39 0-46 34-46 75s6 73 46 73" id="K"/><path d="M100-194c62-1 85 37 85 99 1 63-27 99-86 99S16-35 15-95c0-66 28-99 85-99zM99-20c44 1 53-31 53-75 0-43-8-75-51-75s-53 32-53 75 10 74 51 75" id="L"/><path d="M114-163C36-179 61-72 57 0H25l-1-190h30c1 12-1 29 2 39 6-27 23-49 58-41v29" id="M"/><path d="M24-231v-30h32v30H24zM24 0v-190h32V0H24" id="N"/><path d="M59-47c-2 24 18 29 38 22v24C64 9 27 4 27-40v-127H5v-23h24l9-43h21v43h35v23H59v120" id="O"/><path d="M106-169C34-169 62-67 57 0H25v-261h32l-1 103c12-21 28-36 61-36 89 0 53 116 60 194h-32v-121c2-32-8-49-39-48" id="P"/><path d="M210-169c-67 3-38 105-44 169h-31v-121c0-29-5-50-35-48C34-165 62-65 56 0H25l-1-190h30c1 10-1 24 2 32 10-44 99-50 107 0 11-21 27-35 58-36 85-2 47 119 55 194h-31v-121c0-29-5-49-35-48" id="Q"/><g id="a"><use transform="matrix(0.05,0,0,0.05,0,0)" xlink:href="#I"/><use transform="matrix(0.05,0,0,0.05,12,0)" xlink:href="#J"/><use transform="matrix(0.05,0,0,0.05,15.949999999999998,0)" xlink:href="#K"/><use transform="matrix(0.05,0,0,0.05,25.950000000000003,0)" xlink:href="#L"/><use transform="matrix(0.05,0,0,0.05,35.95,0)" xlink:href="#M"/><use transform="matrix(0.05,0,0,0.05,41.900000000000006,0)" xlink:href="#N"/><use transform="matrix(0.05,0,0,0.05,45.85000000000001,0)" xlink:href="#O"/><use transform="matrix(0.05,0,0,0.05,50.85000000000001,0)" xlink:href="#P"/><use transform="matrix(0.05,0,0,0.05,60.85,0)" xlink:href="#Q"/></g><path d="M160-131c35 5 61 23 61 61C221 17 115-2 30 0v-248c76 3 177-17 177 60 0 33-19 50-47 57zm-97-11c50-1 110 9 110-42 0-47-63-36-110-37v79zm0 115c55-2 124 14 124-45 0-56-70-42-124-44v89" id="R"/><path d="M100-194c63 0 86 42 84 106H49c0 40 14 67 53 68 26 1 43-12 49-29l28 8c-11 28-37 45-77 45C44 4 14-33 15-96c1-61 26-98 85-98zm52 81c6-60-76-77-97-28-3 7-6 17-6 28h103" id="S"/><path d="M117-194c89-4 53 116 60 194h-32v-121c0-31-8-49-39-48C34-167 62-67 57 0H25l-1-190h30c1 10-1 24 2 32 11-22 29-35 61-36" id="T"/><path d="M96-169c-40 0-48 33-48 73s9 75 48 75c24 0 41-14 43-38l32 2c-6 37-31 61-74 61-59 0-76-41-82-99-10-93 101-131 147-64 4 7 5 14 7 22l-32 3c-4-21-16-35-41-35" id="U"/><path d="M141-36C126-15 110 5 73 4 37 3 15-17 15-53c-1-64 63-63 125-63 3-35-9-54-41-54-24 1-41 7-42 31l-33-3c5-37 33-52 76-52 45 0 72 20 72 64v82c-1 20 7 32 28 27v20c-31 9-61-2-59-35zM48-53c0 20 12 33 32 33 41-3 63-29 60-74-43 2-92-5-92 41" id="V"/><path d="M143 0L79-87 56-68V0H24v-261h32v163l83-92h37l-77 82L181 0h-38" id="W"/><path d="M135-143c-3-34-86-38-87 0 15 53 115 12 119 90S17 21 10-45l28-5c4 36 97 45 98 0-10-56-113-15-118-90-4-57 82-63 122-42 12 7 21 19 24 35" id="X"/><g id="b"><use transform="matrix(0.05,0,0,0.05,0,0)" xlink:href="#R"/><use transform="matrix(0.05,0,0,0.05,12,0)" xlink:href="#S"/><use transform="matrix(0.05,0,0,0.05,22,0)" xlink:href="#T"/><use transform="matrix(0.05,0,0,0.05,32,0)" xlink:href="#U"/><use transform="matrix(0.05,0,0,0.05,41,0)" xlink:href="#P"/><use transform="matrix(0.05,0,0,0.05,51,0)" xlink:href="#Q"/><use transform="matrix(0.05,0,0,0.05,65.95,0)" xlink:href="#V"/><use transform="matrix(0.05,0,0,0.05,75.95,0)" xlink:href="#M"/><use transform="matrix(0.05,0,0,0.05,81.9,0)" xlink:href="#W"/><use transform="matrix(0.05,0,0,0.05,90.9,0)" xlink:href="#X"/></g><path d="M115-194c55 1 70 41 70 98S169 2 115 4C84 4 66-9 55-30l1 105H24l-1-265h31l2 30c10-21 28-34 59-34zm-8 174c40 0 45-34 45-75s-6-73-45-74c-42 0-51 32-51 76 0 43 10 73 51 73" id="Y"/><path d="M33-154v-36h34v36H33zM33 0v-36h34V0H33" id="Z"/><path d="M0 4l72-265h28L28 4H0" id="aa"/><path d="M85-194c31 0 48 13 60 33l-1-100h32l1 261h-30c-2-10 0-23-3-31C134-8 116 4 85 4 32 4 16-35 15-94c0-66 23-100 70-100zm9 24c-40 0-46 34-46 75 0 40 6 74 45 74 42 0 51-32 51-76 0-42-9-74-50-73" id="ab"/><path d="M84 4C-5 8 30-112 23-190h32v120c0 31 7 50 39 49 72-2 45-101 50-169h31l1 190h-30c-1-10 1-25-2-33-11 22-28 36-60 37" id="ac"/><path d="M33 0v-38h34V0H33" id="ad"/><g id="c"><use transform="matrix(0.05,0,0,0.05,0,0)" xlink:href="#P"/><use transform="matrix(0.05,0,0,0.05,10,0)" xlink:href="#O"/><use transform="matrix(0.05,0,0,0.05,15,0)" xlink:href="#O"/><use transform="matrix(0.05,0,0,0.05,20,0)" xlink:href="#Y"/><use transform="matrix(0.05,0,0,0.05,30,0)" xlink:href="#Z"/><use transform="matrix(0.05,0,0,0.05,35,0)" xlink:href="#aa"/><use transform="matrix(0.05,0,0,0.05,40,0)" xlink:href="#aa"/><use transform="matrix(0.05,0,0,0.05,45,0)" xlink:href="#U"/><use transform="matrix(0.05,0,0,0.05,54,0)" xlink:href="#L"/><use transform="matrix(0.05,0,0,0.05,64,0)" xlink:href="#ab"/><use transform="matrix(0.05,0,0,0.05,74,0)" xlink:href="#S"/><use transform="matrix(0.05,0,0,0.05,84,0)" xlink:href="#N"/><use transform="matrix(0.05,0,0,0.05,87.95,0)" xlink:href="#T"/><use transform="matrix(0.05,0,0,0.05,97.95,0)" xlink:href="#X"/><use transform="matrix(0.05,0,0,0.05,106.95,0)" xlink:href="#O"/><use transform="matrix(0.05,0,0,0.05,111.95,0)" xlink:href="#N"/><use transform="matrix(0.05,0,0,0.05,115.9,0)" xlink:href="#O"/><use transform="matrix(0.05,0,0,0.05,120.9,0)" xlink:href="#ac"/><use transform="matrix(0.05,0,0,0.05,130.9,0)" xlink:href="#O"/><use transform="matrix(0.05,0,0,0.05,135.9,0)" xlink:href="#S"/><use transform="matrix(0.05,0,0,0.05,145.9,0)" xlink:href="#ad"/><use transform="matrix(0.05,0,0,0.05,150.9,0)" xlink:href="#U"/><use transform="matrix(0.05,0,0,0.05,159.9,0)" xlink:href="#L"/><use transform="matrix(0.05,0,0,0.05,169.9,0)" xlink:href="#Q"/></g><path d="M233-177c-1 41-23 64-60 70L243 0h-38l-65-103H63V0H30v-248c88 3 205-21 203 71zM63-129c60-2 137 13 137-47 0-61-80-42-137-45v92" id="ae"/><g id="d"><use transform="matrix(0.05,0,0,0.05,0,0)" xlink:href="#ae"/><use transform="matrix(0.05,0,0,0.05,12.950000000000001,0)" xlink:href="#S"/><use transform="matrix(0.05,0,0,0.05,22.950000000000003,0)" xlink:href="#X"/><use transform="matrix(0.05,0,0,0.05,31.950000000000003,0)" xlink:href="#ac"/><use transform="matrix(0.05,0,0,0.05,41.95,0)" xlink:href="#J"/><use transform="matrix(0.05,0,0,0.05,45.900000000000006,0)" xlink:href="#O"/><use transform="matrix(0.05,0,0,0.05,50.900000000000006,0)" xlink:href="#X"/></g><g id="e"><use transform="matrix(0.05,0,0,0.05,0,0)" xlink:href="#ae"/><use transform="matrix(0.05,0,0,0.05,12.950000000000001,0)" xlink:href="#ac"/><use transform="matrix(0.05,0,0,0.05,22.950000000000003,0)" xlink:href="#T"/></g><path d="M190 0L58-211 59 0H30v-248h39L202-35l-2-213h31V0h-41" id="af"/><path d="M206 0h-36l-40-164L89 0H53L-1-190h32L70-26l43-164h34l41 164 42-164h31" id="ag"/><g id="f"><use transform="matrix(0.05,0,0,0.05,0,0)" xlink:href="#af"/><use transform="matrix(0.05,0,0,0.05,12.950000000000001,0)" xlink:href="#S"/><use transform="matrix(0.05,0,0,0.05,22.950000000000003,0)" xlink:href="#ag"/></g><path d="M185-189c-5-48-123-54-124 2 14 75 158 14 163 119 3 78-121 87-175 55-17-10-28-26-33-46l33-7c5 56 141 63 141-1 0-78-155-14-162-118-5-82 145-84 179-34 5 7 8 16 11 25" id="ah"/><g id="g"><use transform="matrix(0.05,0,0,0.05,0,0)" xlink:href="#ah"/><use transform="matrix(0.05,0,0,0.05,12,0)" xlink:href="#N"/><use transform="matrix(0.05,0,0,0.05,15.949999999999998,0)" xlink:href="#Q"/><use transform="matrix(0.05,0,0,0.05,30.899999999999995,0)" xlink:href="#ac"/><use transform="matrix(0.05,0,0,0.05,40.9,0)" xlink:href="#J"/><use transform="matrix(0.05,0,0,0.05,44.85,0)" xlink:href="#V"/><use transform="matrix(0.05,0,0,0.05,54.85,0)" xlink:href="#O"/><use transform="matrix(0.05,0,0,0.05,59.85,0)" xlink:href="#N"/><use transform="matrix(0.05,0,0,0.05,63.800000000000004,0)" xlink:href="#L"/><use transform="matrix(0.05,0,0,0.05,73.80000000000001,0)" xlink:href="#T"/></g><g id="h"><use transform="matrix(0.05,0,0,0.05,0,0)" xlink:href="#ae"/><use transform="matrix(0.05,0,0,0.05,12.950000000000001,0)" xlink:href="#S"/><use transform="matrix(0.05,0,0,0.05,22.950000000000003,0)" xlink:href="#X"/><use transform="matrix(0.05,0,0,0.05,31.950000000000003,0)" xlink:href="#S"/><use transform="matrix(0.05,0,0,0.05,41.95,0)" xlink:href="#O"/></g><g id="i"><use transform="matrix(0.05,0,0,0.05,0,0)" xlink:href="#I"/><use transform="matrix(0.05,0,0,0.05,12,0)" xlink:href="#J"/><use transform="matrix(0.05,0,0,0.05,15.949999999999998,0)" xlink:href="#K"/><use transform="matrix(0.05,0,0,0.05,25.950000000000003,0)" xlink:href="#L"/><use transform="matrix(0.05,0,0,0.05,35.95,0)" xlink:href="#M"/><use transform="matrix(0.05,0,0,0.05,41.900000000000006,0)" xlink:href="#N"/><use transform="matrix(0.05,0,0,0.05,45.85000000000001,0)" xlink:href="#O"/><use transform="matrix(0.05,0,0,0.05,50.85000000000001,0)" xlink:href="#P"/><use transform="matrix(0.05,0,0,0.05,60.85,0)" xlink:href="#Q"/></g><g id="j"><use transform="matrix(0.05,0,0,0.05,0,0)" xlink:href="#R"/><use transform="matrix(0.05,0,0,0.05,12,0)" xlink:href="#S"/><use transform="matrix(0.05,0,0,0.05,22,0)" xlink:href="#T"/><use transform="matrix(0.05,0,0,0.05,32,0)" xlink:href="#U"/><use transform="matrix(0.05,0,0,0.05,41,0)" xlink:href="#P"/><use transform="matrix(0.05,0,0,0.05,51,0)" xlink:href="#Q"/><use transform="matrix(0.05,0,0,0.05,65.95,0)" xlink:href="#V"/><use transform="matrix(0.05,0,0,0.05,75.95,0)" xlink:href="#M"/><use transform="matrix(0.05,0,0,0.05,81.9,0)" xlink:href="#W"/><use transform="matrix(0.05,0,0,0.05,90.9,0)" xlink:href="#X"/></g><g id="k"><use transform="matrix(0.05,0,0,0.05,0,0)" xlink:href="#P"/><use transform="matrix(0.05,0,0,0.05,10,0)" xlink:href="#O"/><use transform="matrix(0.05,0,0,0.05,15,0)" xlink:href="#O"/><use transform="matrix(0.05,0,0,0.05,20,0)" xlink:href="#Y"/><use transform="matrix(0.05,0,0,0.05,30,0)" xlink:href="#Z"/><use transform="matrix(0.05,0,0,0.05,35,0)" xlink:href="#aa"/><use transform="matrix(0.05,0,0,0.05,40,0)" xlink:href="#aa"/><use transform="matrix(0.05,0,0,0.05,45,0)" xlink:href="#U"/><use transform="matrix(0.05,0,0,0.05,54,0)" xlink:href="#L"/><use transform="matrix(0.05,0,0,0.05,64,0)" xlink:href="#ab"/><use transform="matrix(0.05,0,0,0.05,74,0)" xlink:href="#S"/><use transform="matrix(0.05,0,0,0.05,84,0)" xlink:href="#N"/><use transform="matrix(0.05,0,0,0.05,87.95,0)" xlink:href="#T"/><use transform="matrix(0.05,0,0,0.05,97.95,0)" xlink:href="#X"/><use transform="matrix(0.05,0,0,0.05,106.95,0)" xlink:href="#O"/><use transform="matrix(0.05,0,0,0.05,111.95,0)" xlink:href="#N"/><use transform="matrix(0.05,0,0,0.05,115.9,0)" xlink:href="#O"/><use transform="matrix(0.05,0,0,0.05,120.9,0)" xlink:href="#ac"/><use transform="matrix(0.05,0,0,0.05,130.9,0)" xlink:href="#O"/><use transform="matrix(0.05,0,0,0.05,135.9,0)" xlink:href="#S"/><use transform="matrix(0.05,0,0,0.05,145.9,0)" xlink:href="#ad"/><use transform="matrix(0.05,0,0,0.05,150.9,0)" xlink:href="#U"/><use transform="matrix(0.05,0,0,0.05,159.9,0)" xlink:href="#L"/><use transform="matrix(0.05,0,0,0.05,169.9,0)" xlink:href="#Q"/></g><path d="M33 0v-248h34V0H33" id="ai"/><g id="l"><use transform="matrix(0.05,0,0,0.05,0,0)" xlink:href="#ai"/><use transform="matrix(0.05,0,0,0.05,5,0)" xlink:href="#T"/><use transform="matrix(0.05,0,0,0.05,15,0)" xlink:href="#X"/><use transform="matrix(0.05,0,0,0.05,24,0)" xlink:href="#S"/><use transform="matrix(0.05,0,0,0.05,34,0)" xlink:href="#M"/><use transform="matrix(0.05,0,0,0.05,39.95,0)" xlink:href="#O"/><use transform="matrix(0.05,0,0,0.05,44.95,0)" xlink:href="#N"/><use transform="matrix(0.05,0,0,0.05,48.900000000000006,0)" xlink:href="#L"/><use transform="matrix(0.05,0,0,0.05,58.900000000000006,0)" xlink:href="#T"/></g><g id="m"><use transform="matrix(0.05,0,0,0.05,0,0)" xlink:href="#ah"/><use transform="matrix(0.05,0,0,0.05,12,0)" xlink:href="#L"/><use transform="matrix(0.05,0,0,0.05,22,0)" xlink:href="#M"/><use transform="matrix(0.05,0,0,0.05,27.950000000000003,0)" xlink:href="#O"/></g><path d="M27 0v-27h64v-190l-56 39v-29l58-41h29v221h61V0H27" id="aj"/><path d="M101-251c68 0 85 55 85 127S166 4 100 4C33 4 14-52 14-124c0-73 17-127 87-127zm-1 229c47 0 54-49 54-102s-4-102-53-102c-51 0-55 48-55 102 0 53 5 102 54 102" id="ak"/><g id="n"><use transform="matrix(0.05,0,0,0.05,0,0)" xlink:href="#aj"/><use transform="matrix(0.05,0,0,0.05,10,0)" xlink:href="#ak"/><use transform="matrix(0.05,0,0,0.05,20,0)" xlink:href="#ak"/></g><path d="M54-142c48-35 137-8 131 61C196 18 31 33 14-55l32-4c7 23 22 37 52 37 35-1 51-22 54-58 4-55-73-65-99-34H22l8-134h141v27H59" id="al"/><g id="o"><use transform="matrix(0.05,0,0,0.05,0,0)" xlink:href="#al"/><use transform="matrix(0.05,0,0,0.05,10,0)" xlink:href="#ak"/><use transform="matrix(0.05,0,0,0.05,20,0)" xlink:href="#ak"/></g><g id="p"><use transform="matrix(0.05,0,0,0.05,0,0)" xlink:href="#aj"/><use transform="matrix(0.05,0,0,0.05,10,0)" xlink:href="#ak"/><use transform="matrix(0.05,0,0,0.05,20,0)" xlink:href="#ak"/><use transform="matrix(0.05,0,0,0.05,30,0)" xlink:href="#ak"/></g><path d="M101-251c82-7 93 87 43 132L82-64C71-53 59-42 53-27h129V0H18c2-99 128-94 128-182 0-28-16-43-45-43s-46 15-49 41l-32-3c6-41 34-60 81-64" id="am"/><g id="q"><use transform="matrix(0.05,0,0,0.05,0,0)" xlink:href="#am"/><use transform="matrix(0.05,0,0,0.05,10,0)" xlink:href="#al"/><use transform="matrix(0.05,0,0,0.05,20,0)" xlink:href="#ak"/><use transform="matrix(0.05,0,0,0.05,30,0)" xlink:href="#ak"/></g><path d="M197 0v-115H63V0H30v-248h33v105h134v-105h34V0h-34" id="an"/><g id="r"><use transform="matrix(0.05,0,0,0.05,0,0)" xlink:href="#an"/><use transform="matrix(0.05,0,0,0.05,12.950000000000001,0)" xlink:href="#L"/><use transform="matrix(0.05,0,0,0.05,22.950000000000003,0)" xlink:href="#Q"/><use transform="matrix(0.05,0,0,0.05,37.900000000000006,0)" xlink:href="#S"/></g><g id="s"><use transform="matrix(0.05,0,0,0.05,0,0)" xlink:href="#ah"/><use transform="matrix(0.05,0,0,0.05,12,0)" xlink:href="#N"/><use transform="matrix(0.05,0,0,0.05,15.949999999999998,0)" xlink:href="#Q"/><use transform="matrix(0.05,0,0,0.05,30.899999999999995,0)" xlink:href="#ac"/><use transform="matrix(0.05,0,0,0.05,40.9,0)" xlink:href="#J"/><use transform="matrix(0.05,0,0,0.05,44.85,0)" xlink:href="#V"/><use transform="matrix(0.05,0,0,0.05,54.85,0)" xlink:href="#O"/><use transform="matrix(0.05,0,0,0.05,59.85,0)" xlink:href="#N"/><use transform="matrix(0.05,0,0,0.05,63.800000000000004,0)" xlink:href="#L"/><use transform="matrix(0.05,0,0,0.05,73.80000000000001,0)" xlink:href="#T"/></g><g id="t"><use transform="matrix(0.05,0,0,0.05,0,0)" xlink:href="#ah"/><use transform="matrix(0.05,0,0,0.05,12,0)" xlink:href="#S"/><use transform="matrix(0.05,0,0,0.05,22,0)" xlink:href="#O"/><use transform="matrix(0.05,0,0,0.05,27,0)" xlink:href="#ac"/><use transform="matrix(0.05,0,0,0.05,37,0)" xlink:href="#Y"/></g><path d="M9 0v-24l116-142H16v-24h144v24L44-24h123V0H9" id="ao"/><g id="u"><use transform="matrix(0.05,0,0,0.05,0,0)" xlink:href="#ae"/><use transform="matrix(0.05,0,0,0.05,12.950000000000001,0)" xlink:href="#V"/><use transform="matrix(0.05,0,0,0.05,22.950000000000003,0)" xlink:href="#T"/><use transform="matrix(0.05,0,0,0.05,32.95,0)" xlink:href="#ab"/><use transform="matrix(0.05,0,0,0.05,42.95,0)" xlink:href="#L"/><use transform="matrix(0.05,0,0,0.05,52.95,0)" xlink:href="#Q"/><use transform="matrix(0.05,0,0,0.05,67.9,0)" xlink:href="#N"/><use transform="matrix(0.05,0,0,0.05,71.85000000000001,0)" xlink:href="#ao"/><use transform="matrix(0.05,0,0,0.05,80.85000000000001,0)" xlink:href="#S"/><use transform="matrix(0.05,0,0,0.05,90.85000000000001,0)" xlink:href="#ab"/></g><g id="v"><use transform="matrix(0.05,0,0,0.05,0,0)" xlink:href="#R"/><use transform="matrix(0.05,0,0,0.05,12,0)" xlink:href="#S"/><use transform="matrix(0.05,0,0,0.05,22,0)" xlink:href="#X"/><use transform="matrix(0.05,0,0,0.05,31,0)" xlink:href="#O"/></g><path d="M212-179c-10-28-35-45-73-45-59 0-87 40-87 99 0 60 29 101 89 101 43 0 62-24 78-52l27 14C228-24 195 4 139 4 59 4 22-46 18-125c-6-104 99-153 187-111 19 9 31 26 39 46" id="ap"/><g id="w"><use transform="matrix(0.05,0,0,0.05,0,0)" xlink:href="#ap"/><use transform="matrix(0.05,0,0,0.05,12.950000000000001,0)" xlink:href="#V"/><use transform="matrix(0.05,0,0,0.05,22.950000000000003,0)" xlink:href="#X"/><use transform="matrix(0.05,0,0,0.05,31.950000000000003,0)" xlink:href="#S"/></g><path d="M266 0h-40l-56-210L115 0H75L2-248h35L96-30l15-64 43-154h32l59 218 59-218h35" id="aq"/><g id="x"><use transform="matrix(0.05,0,0,0.05,0,0)" xlink:href="#aq"/><use transform="matrix(0.05,0,0,0.05,16.599999999999998,0)" xlink:href="#L"/><use transform="matrix(0.05,0,0,0.05,26.599999999999994,0)" xlink:href="#M"/><use transform="matrix(0.05,0,0,0.05,32.55,0)" xlink:href="#X"/><use transform="matrix(0.05,0,0,0.05,41.55,0)" xlink:href="#O"/></g><g id="y"><use transform="matrix(0.05,0,0,0.05,0,0)" xlink:href="#I"/><use transform="matrix(0.05,0,0,0.05,12,0)" xlink:href="#J"/><use transform="matrix(0.05,0,0,0.05,15.949999999999998,0)" xlink:href="#K"/><use transform="matrix(0.05,0,0,0.05,25.950000000000003,0)" xlink:href="#L"/><use transform="matrix(0.05,0,0,0.05,35.95,0)" xlink:href="#M"/><use transform="matrix(0.05,0,0,0.05,41.900000000000006,0)" xlink:href="#N"/><use transform="matrix(0.05,0,0,0.05,45.85000000000001,0)" xlink:href="#O"/><use transform="matrix(0.05,0,0,0.05,50.85000000000001,0)" xlink:href="#P"/><use transform="matrix(0.05,0,0,0.05,60.85,0)" xlink:href="#Q"/><use transform="matrix(0.05,0,0,0.05,75.80000000000001,0)" xlink:href="#Z"/></g><g id="z"><use transform="matrix(0.05,0,0,0.05,0,0)" xlink:href="#af"/><use transform="matrix(0.05,0,0,0.05,12.950000000000001,0)" xlink:href="#L"/><use transform="matrix(0.05,0,0,0.05,22.950000000000003,0)" xlink:href="#ad"/></g><path d="M101-234c-31-9-42 10-38 44h38v23H63V0H32v-167H5v-23h27c-7-52 17-82 69-68v24" id="ar"/><g id="A"><use transform="matrix(0.05,0,0,0.05,0,0)" xlink:href="#L"/><use transform="matrix(0.05,0,0,0.05,10,0)" xlink:href="#ar"/></g><path d="M30 0v-248h187v28H63v79h144v27H63v87h162V0H30" id="as"/><g id="B"><use transform="matrix(0.05,0,0,0.05,0,0)" xlink:href="#as"/><use transform="matrix(0.05,0,0,0.05,12,0)" xlink:href="#J"/><use transform="matrix(0.05,0,0,0.05,15.949999999999998,0)" xlink:href="#S"/><use transform="matrix(0.05,0,0,0.05,25.950000000000003,0)" xlink:href="#Q"/><use transform="matrix(0.05,0,0,0.05,40.9,0)" xlink:href="#S"/><use transform="matrix(0.05,0,0,0.05,50.9,0)" xlink:href="#T"/><use transform="matrix(0.05,0,0,0.05,60.900000000000006,0)" xlink:href="#O"/><use transform="matrix(0.05,0,0,0.05,65.9,0)" xlink:href="#X"/></g><g id="C"><use transform="matrix(0.05,0,0,0.05,0,0)" xlink:href="#ah"/><use transform="matrix(0.05,0,0,0.05,12,0)" xlink:href="#N"/><use transform="matrix(0.05,0,0,0.05,15.949999999999998,0)" xlink:href="#Q"/><use transform="matrix(0.05,0,0,0.05,30.899999999999995,0)" xlink:href="#ac"/><use transform="matrix(0.05,0,0,0.05,40.9,0)" xlink:href="#J"/><use transform="matrix(0.05,0,0,0.05,44.85,0)" xlink:href="#V"/><use transform="matrix(0.05,0,0,0.05,54.85,0)" xlink:href="#O"/><use transform="matrix(0.05,0,0,0.05,59.85,0)" xlink:href="#N"/><use transform="matrix(0.05,0,0,0.05,63.800000000000004,0)" xlink:href="#L"/><use transform="matrix(0.05,0,0,0.05,73.80000000000001,0)" xlink:href="#T"/></g><path d="M127-220V0H93v-220H8v-28h204v28h-85" id="at"/><path d="M179-190L93 31C79 59 56 82 12 73V49c39 6 53-20 64-50L1-190h34L92-34l54-156h33" id="au"/><g id="D"><use transform="matrix(0.05,0,0,0.05,0,0)" xlink:href="#at"/><use transform="matrix(0.05,0,0,0.05,9.950000000000001,0)" xlink:href="#au"/><use transform="matrix(0.05,0,0,0.05,18.950000000000003,0)" xlink:href="#Y"/><use transform="matrix(0.05,0,0,0.05,28.950000000000003,0)" xlink:href="#S"/><use transform="matrix(0.05,0,0,0.05,38.95,0)" xlink:href="#Z"/></g><g id="E"><use transform="matrix(0.05,0,0,0.05,0,0)" xlink:href="#al"/><use transform="matrix(0.05,0,0,0.05,10,0)" xlink:href="#ak"/><use transform="matrix(0.05,0,0,0.05,20,0)" xlink:href="#ak"/><use transform="matrix(0.05,0,0,0.05,30,0)" xlink:href="#ak"/></g><path d="M64 0c3-98 48-159 88-221H18v-27h164v26C143-157 98-101 97 0H64" id="av"/><g id="F"><use transform="matrix(0.05,0,0,0.05,0,0)" xlink:href="#av"/><use transform="matrix(0.05,0,0,0.05,10,0)" xlink:href="#al"/><use transform="matrix(0.05,0,0,0.05,20,0)" xlink:href="#ak"/><use transform="matrix(0.05,0,0,0.05,30,0)" xlink:href="#ak"/></g><g id="G"><use transform="matrix(0.05,0,0,0.05,0,0)" xlink:href="#aj"/><use transform="matrix(0.05,0,0,0.05,10,0)" xlink:href="#ak"/><use transform="matrix(0.05,0,0,0.05,20,0)" xlink:href="#ak"/><use transform="matrix(0.05,0,0,0.05,30,0)" xlink:href="#ak"/><use transform="matrix(0.05,0,0,0.05,40,0)" xlink:href="#ak"/></g><g id="H"><use transform="matrix(0.05,0,0,0.05,0,0)" xlink:href="#ad"/><use transform="matrix(0.05,0,0,0.05,5,0)" xlink:href="#ad"/><use transform="matrix(0.05,0,0,0.05,10,0)" xlink:href="#ad"/></g></defs></g></svg>